<svg xmlns="http://www.w3.org/2000/svg" viewBox="0 0 512 512">
  <circle cx="256" cy="256" r="256" fill="#0c0a09"/>
  <g transform="translate(60.59,350.75) scale(0.13552,-0.13552)" fill="#E0A65A"><path d="M1350.3 386.4Q1349.5 310.2 1309.3 235.1Q1269.2 160.0 1194.5 98.2Q1119.9 36.3 1014.5 -0.7Q909.2 -37.7 777.0 -37.7Q559.0 -37.7 400.3 55.3Q241.7 148.3 155.6 312.7Q69.5 477.0 69.5 690.9Q69.5 852.3 120.8 988.1Q172.1 1123.9 264.9 1224.4Q357.8 1325.0 482.7 1380.5Q607.6 1436.0 754.0 1436.0Q851.1 1436.0 912.0 1417.7Q972.8 1399.3 1008.6 1380.6Q1044.3 1361.9 1065.5 1361.9Q1091.2 1361.9 1107.5 1378.8Q1123.7 1395.7 1140.5 1412.3Q1157.3 1428.9 1182.8 1428.9Q1202.1 1428.9 1214.9 1416.6Q1227.7 1404.3 1236.3 1374.8L1339.7 1020.4Q1347.1 995.5 1334.6 976.3Q1322.1 957.1 1297.4 951.4Q1271.6 945.8 1250.5 955.8Q1229.5 965.9 1217.8 992.7Q1164.5 1115.1 1100.4 1185.8Q1036.3 1256.4 963.6 1286.3Q890.9 1316.2 810.5 1316.2Q728.0 1316.2 660.2 1278.0Q592.4 1239.7 543.6 1167.8Q494.8 1095.9 468.3 994.4Q441.9 892.9 441.9 766.1Q441.9 565.9 499.8 429.6Q557.7 293.4 659.0 224.3Q760.4 155.2 891.5 155.2Q1014.7 155.2 1109.0 216.8Q1203.4 278.5 1256.7 393.8Q1269.6 418.6 1284.5 426.8Q1299.4 435.0 1317.7 431.6Q1334.9 428.9 1342.7 417.2Q1350.4 405.6 1350.3 386.4Z"/><path transform="translate(1445,0)" d="M865.8 445.7 568.1 400.1 160.0 1217.0Q143.1 1251.7 129.6 1265.2Q116.1 1278.7 93.9 1286.7L64.3 1296.9Q43.4 1305.0 34.0 1318.7Q24.6 1332.4 24.6 1349.3Q24.6 1373.2 40.9 1386.6Q57.2 1400 90.8 1400H607.2Q641.1 1400 657.9 1386.7Q674.7 1373.3 674.7 1349.4Q674.7 1307.3 627.8 1294.2L586.1 1284.8Q552.8 1275.6 546.5 1258.7Q540.3 1241.7 556.5 1205.4L860.4 538.9L746.5 481.5L1066.4 1153.7Q1087.8 1199.6 1076.2 1234.7Q1064.7 1269.7 1014.4 1286.5L975.5 1297.1Q959.1 1303.2 948.9 1316.3Q938.7 1329.5 938.7 1349.3Q938.7 1373.2 955.0 1386.6Q971.2 1400 1004.5 1400H1303.8Q1337.4 1400 1353.4 1386.6Q1369.4 1373.3 1369.4 1349.4Q1369.4 1331.1 1360.9 1319.3Q1352.3 1307.5 1331.8 1298.0L1315.8 1290.5Q1294.8 1281.8 1277.1 1266.2Q1259.3 1250.7 1240.5 1221.9Q1221.7 1193.1 1197.4 1141.5ZM525.1 513.6 893.7 514.7V177.4Q893.7 154.9 906.5 141.1Q919.2 127.2 943.3 119.3L994.5 106.3Q1037.8 91.4 1037.8 50.7Q1037.8 27.7 1022.0 13.8Q1006.1 0 972.5 0H446.4Q412.9 0 397.0 13.9Q381.1 27.7 381.1 50.7Q381.1 91.5 424.3 106.3L475.6 119.3Q500.4 127.2 512.8 141.1Q525.1 154.9 525.1 177.4Z"/></g>
</svg>
