<svg xmlns="http://www.w3.org/2000/svg" viewBox="0 0 1080 1080" width="1080" height="1080">
  <defs>
    <linearGradient id="bg" x1="0" y1="0" x2="1" y2="1">
      <stop offset="0%" stop-color="#FFD15C"/>
      <stop offset="100%" stop-color="#b35a00"/>
    </linearGradient>
  </defs>
  <rect width="1080" height="1080" fill="url(#bg)"/>
  <g transform="translate(200,260)">
    <rect x="0" y="0" width="680" height="440" rx="22" fill="#ffffff"/>
    <line x1="60" y1="380" x2="620" y2="380" stroke="#302f4e" stroke-width="4"/>
    <line x1="60" y1="60" x2="60" y2="380" stroke="#302f4e" stroke-width="4"/>
    <polyline points="60,120 180,180 300,150 420,260 540,320 620,360" fill="none" stroke="#FF4C60" stroke-width="10" stroke-linecap="round" stroke-linejoin="round"/>
    <circle cx="180" cy="180" r="10" fill="#FF4C60"/>
    <circle cx="300" cy="150" r="10" fill="#FF4C60"/>
    <circle cx="420" cy="260" r="10" fill="#FF4C60"/>
    <circle cx="540" cy="320" r="10" fill="#FF4C60"/>
    <polygon points="620,360 600,340 640,340" fill="#FF4C60"/>
  </g>
  <g transform="translate(820,220)">
    <polygon points="0,120 60,0 120,120" fill="#FF4C60"/>
    <rect x="54" y="35" width="12" height="50" fill="#ffffff"/>
    <circle cx="60" cy="100" r="7" fill="#ffffff"/>
  </g>
  <text x="540" y="860" font-family="Rubik, Helvetica, sans-serif" font-size="60" font-weight="700" fill="#ffffff" text-anchor="middle">Cancellation Prediction</text>
  <text x="540" y="920" font-family="Rubik, Helvetica, sans-serif" font-size="34" fill="#fff3d6" text-anchor="middle">Random Forest · Power BI</text>
</svg>
