<svg xmlns="http://www.w3.org/2000/svg" viewBox="0 0 1080 1080" width="1080" height="1080">
  <defs>
    <linearGradient id="bg" x1="0" y1="0" x2="1" y2="1">
      <stop offset="0%" stop-color="#44D7B6"/>
      <stop offset="100%" stop-color="#2a6f7a"/>
    </linearGradient>
  </defs>
  <rect width="1080" height="1080" fill="url(#bg)"/>
  <g transform="translate(300,220)">
    <rect x="0" y="0" width="420" height="560" rx="22" fill="#ffffff"/>
    <rect x="60" y="80" width="300" height="22" rx="6" fill="#c8e8e1"/>
    <rect x="60" y="130" width="260" height="22" rx="6" fill="#c8e8e1"/>
    <rect x="60" y="180" width="280" height="22" rx="6" fill="#c8e8e1"/>
    <rect x="60" y="230" width="220" height="22" rx="6" fill="#c8e8e1"/>
    <rect x="60" y="280" width="300" height="22" rx="6" fill="#c8e8e1"/>
    <rect x="60" y="330" width="200" height="22" rx="6" fill="#c8e8e1"/>
    <rect x="60" y="380" width="270" height="22" rx="6" fill="#c8e8e1"/>
  </g>
  <g transform="translate(640,620)">
    <circle cx="0" cy="0" r="120" fill="none" stroke="#FFD15C" stroke-width="28"/>
    <line x1="85" y1="85" x2="180" y2="180" stroke="#FFD15C" stroke-width="34" stroke-linecap="round"/>
    <circle cx="0" cy="0" r="80" fill="#FFD15C" fill-opacity="0.25"/>
  </g>
  <text x="540" y="920" font-family="Rubik, Helvetica, sans-serif" font-size="64" font-weight="700" fill="#ffffff" text-anchor="middle">ContractIQ</text>
  <text x="540" y="980" font-family="Rubik, Helvetica, sans-serif" font-size="36" fill="#e6fff7" text-anchor="middle">Clause Search · Azure AI Search</text>
</svg>
