<svg xmlns="http://www.w3.org/2000/svg" viewBox="0 0 1080 1080" width="1080" height="1080">
  <defs>
    <linearGradient id="bg" x1="0" y1="0" x2="1" y2="1">
      <stop offset="0%" stop-color="#6C6CE5"/>
      <stop offset="100%" stop-color="#302f4e"/>
    </linearGradient>
  </defs>
  <rect width="1080" height="1080" fill="url(#bg)"/>
  <g transform="translate(340,240)">
    <rect x="0" y="0" width="400" height="540" rx="22" fill="#ffffff"/>
    <rect x="60" y="90" width="280" height="22" rx="6" fill="#d7d7ec"/>
    <rect x="60" y="140" width="240" height="22" rx="6" fill="#d7d7ec"/>
    <rect x="60" y="190" width="260" height="22" rx="6" fill="#d7d7ec"/>
    <rect x="60" y="240" width="180" height="22" rx="6" fill="#d7d7ec"/>
    <rect x="60" y="300" width="280" height="22" rx="6" fill="#d7d7ec"/>
    <rect x="60" y="350" width="210" height="22" rx="6" fill="#d7d7ec"/>
    <g transform="translate(250,420)">
      <polygon points="50,0 62,36 100,36 70,60 82,98 50,76 18,98 30,60 0,36 38,36" fill="#FFD15C"/>
    </g>
  </g>
  <g transform="translate(690,180)" fill="#FFD15C">
    <circle cx="0" cy="0" r="14"/>
    <circle cx="40" cy="-30" r="8"/>
    <circle cx="-30" cy="30" r="8"/>
  </g>
  <text x="540" y="900" font-family="Rubik, Helvetica, sans-serif" font-size="64" font-weight="700" fill="#ffffff" text-anchor="middle">LexiScan</text>
  <text x="540" y="960" font-family="Rubik, Helvetica, sans-serif" font-size="36" fill="#d7d7ec" text-anchor="middle">Legal AI · Azure OpenAI</text>
</svg>
