<svg xmlns="http://www.w3.org/2000/svg" viewBox="0 0 1080 1080" width="1080" height="1080">
  <defs>
    <linearGradient id="bg" x1="0" y1="0" x2="1" y2="1">
      <stop offset="0%" stop-color="#44D7B6"/>
      <stop offset="100%" stop-color="#0e5d4a"/>
    </linearGradient>
  </defs>
  <rect width="1080" height="1080" fill="url(#bg)"/>
  <g transform="translate(200,260)">
    <rect x="0" y="0" width="680" height="440" rx="22" fill="#ffffff"/>
    <line x1="60" y1="380" x2="620" y2="380" stroke="#302f4e" stroke-width="4"/>
    <line x1="60" y1="60" x2="60" y2="380" stroke="#302f4e" stroke-width="4"/>
    <polyline points="60,320 180,280 300,240 420,200 540,140 620,90" fill="none" stroke="#6C6CE5" stroke-width="10" stroke-linecap="round" stroke-linejoin="round"/>
    <circle cx="180" cy="280" r="10" fill="#6C6CE5"/>
    <circle cx="300" cy="240" r="10" fill="#6C6CE5"/>
    <circle cx="420" cy="200" r="10" fill="#6C6CE5"/>
    <circle cx="540" cy="140" r="10" fill="#6C6CE5"/>
    <polygon points="620,90 600,110 640,110" fill="#6C6CE5"/>
  </g>
  <g transform="translate(820,220)">
    <circle cx="60" cy="60" r="60" fill="#FFD15C"/>
    <text x="60" y="88" font-family="Rubik, Helvetica, sans-serif" font-size="90" font-weight="700" fill="#302f4e" text-anchor="middle">$</text>
  </g>
  <text x="540" y="860" font-family="Rubik, Helvetica, sans-serif" font-size="60" font-weight="700" fill="#ffffff" text-anchor="middle">Pricing Forecasting</text>
  <text x="540" y="920" font-family="Rubik, Helvetica, sans-serif" font-size="34" fill="#e6fff7" text-anchor="middle">LightGBM · XGBoost</text>
</svg>
