<svg xmlns="http://www.w3.org/2000/svg" viewBox="0 0 1080 1080" width="1080" height="1080">
  <defs>
    <linearGradient id="bg" x1="0" y1="0" x2="1" y2="1">
      <stop offset="0%" stop-color="#FF4C60"/>
      <stop offset="100%" stop-color="#6C2a4a"/>
    </linearGradient>
  </defs>
  <rect width="1080" height="1080" fill="url(#bg)"/>
  <g transform="translate(200,280)">
    <path d="M0 40 Q0 0 40 0 L360 0 Q400 0 400 40 L400 200 Q400 240 360 240 L140 240 L80 310 L90 240 L40 240 Q0 240 0 200 Z" fill="#ffffff"/>
    <circle cx="130" cy="120" r="16" fill="#FF4C60"/>
    <circle cx="200" cy="120" r="16" fill="#FF4C60"/>
    <circle cx="270" cy="120" r="16" fill="#FF4C60"/>
  </g>
  <g transform="translate(520,520)">
    <path d="M0 40 Q0 0 40 0 L360 0 Q400 0 400 40 L400 200 Q400 240 360 240 L260 240 L320 310 L200 240 L40 240 Q0 240 0 200 Z" fill="#FFD15C"/>
    <rect x="60" y="100" width="280" height="16" rx="4" fill="#6c2a4a"/>
    <rect x="60" y="140" width="220" height="16" rx="4" fill="#6c2a4a"/>
    <rect x="60" y="180" width="260" height="16" rx="4" fill="#6c2a4a"/>
  </g>
  <text x="540" y="920" font-family="Rubik, Helvetica, sans-serif" font-size="64" font-weight="700" fill="#ffffff" text-anchor="middle">RAG Chatbot</text>
  <text x="540" y="980" font-family="Rubik, Helvetica, sans-serif" font-size="36" fill="#ffe6ea" text-anchor="middle">Sales Enablement · OpenAI + Search</text>
</svg>
